<svg width="491" height="491" viewBox="0 0 491 491" fill="none" xmlns="http://www.w3.org/2000/svg">
<path d="M472.849 376.586C452.347 427.458 367.137 478.665 290.063 474.592C201.158 469.889 40.7207 384.574 16.9433 296.225C-6.83404 207.876 115.286 232.872 110.814 155.86C97.377 -75.4889 336.862 54.3891 398.504 108.158C460.147 161.928 501.834 304.655 472.849 376.575V376.586Z" fill="#F0F0FC"/>
<path d="M213.062 368.722L143.777 390.788C110.237 278.473 244.828 235.705 282.358 346.666L213.073 368.733L213.062 368.722Z" fill="#F6BD5F"/>
<path d="M123.789 401.56C123.653 401.56 123.516 401.518 123.39 401.455C123.275 401.381 123.17 401.287 123.107 401.171C123.033 401.035 115.423 387.713 112.945 368.019C110.783 351.496 112.966 334.7 119.286 319.278C127.044 300.277 135.904 289.328 143.011 280.542C152.091 269.351 157.539 262.591 153.12 248.072C148.312 233.69 139.935 231.36 126.067 227.486C115.171 224.442 101.597 220.663 84.2758 209.672C63.4798 196.497 52.5306 178.462 47.0088 165.655C41.0251 151.777 39.9439 140.848 39.9334 140.743C39.9124 140.565 39.9649 140.386 40.0593 140.229C40.1538 140.082 40.3113 139.967 40.4793 139.914L212.632 84.9375C212.8 84.885 212.989 84.885 213.156 84.9585C213.324 85.0214 213.461 85.1474 213.555 85.3049C213.608 85.3994 219.077 94.9313 222.237 109.712C225.155 123.338 226.688 144.386 217.387 167.187C209.629 186.188 200.769 197.137 193.652 205.913C184.571 217.104 179.123 223.864 183.553 238.383C188.35 252.765 196.728 255.095 210.606 258.969C221.502 262.013 235.076 265.792 252.397 276.784C253.331 277.371 254.255 277.97 255.158 278.6C255.242 278.652 255.315 278.736 255.378 278.82C255.431 278.904 255.473 278.999 255.494 279.104C255.515 279.209 255.515 279.314 255.494 279.408C255.473 279.513 255.431 279.607 255.378 279.691C255.315 279.775 255.242 279.849 255.158 279.912C255.074 279.964 254.969 280.006 254.874 280.027C254.769 280.048 254.665 280.048 254.57 280.027C254.476 280.006 254.371 279.964 254.287 279.901C253.405 279.303 252.491 278.715 251.568 278.117C234.425 267.252 220.998 263.514 210.207 260.491C196.318 256.617 187.154 254.056 182.073 238.866C177.391 223.518 183.385 216.117 192.455 204.927C199.509 196.213 208.286 185.38 215.949 166.589C225.103 144.155 223.591 123.454 220.725 110.038C218.038 97.5137 213.713 88.8531 212.537 86.6486L41.6235 141.226C41.9489 143.714 43.4396 153.309 48.5205 165.088C53.9583 177.664 64.729 195.384 85.1576 208.349C102.3 219.214 115.727 222.951 126.529 225.975C140.407 229.848 149.582 232.41 154.663 247.6C159.345 262.948 153.351 270.348 144.281 281.539C137.226 290.252 128.45 301.096 120.787 319.877C114.572 335.046 112.431 351.569 114.551 367.82C116.703 384.931 122.781 397.13 124.209 399.817L295.112 345.239C294.713 342.226 292.603 328.758 284.436 313.578C284.384 313.484 284.342 313.389 284.331 313.284C284.321 313.179 284.331 313.074 284.352 312.969C284.384 312.864 284.426 312.77 284.499 312.686C284.562 312.602 284.646 312.528 284.741 312.486C284.835 312.434 284.94 312.402 285.045 312.392C285.15 312.392 285.255 312.392 285.36 312.434C285.465 312.476 285.559 312.518 285.633 312.591C285.717 312.665 285.78 312.749 285.822 312.843C295.217 330.322 296.739 345.596 296.75 345.733C296.771 345.911 296.718 346.09 296.624 346.237C296.519 346.384 296.372 346.499 296.204 346.551L124.052 401.528C123.978 401.549 123.894 401.56 123.81 401.56H123.789Z" fill="#6A6AF4"/>
<path d="M129.385 366.749C129.196 366.749 129.007 366.675 128.86 366.55C128.713 366.424 128.618 366.245 128.597 366.056C126.781 352.22 128.608 338.164 133.888 325.241C140.764 308.403 148.469 298.871 155.272 290.472C155.398 290.315 155.597 290.21 155.807 290.189C156.017 290.168 156.227 290.231 156.385 290.357C156.542 290.483 156.647 290.682 156.679 290.892C156.7 291.102 156.637 291.312 156.511 291.47C149.782 299.784 142.15 309.211 135.358 325.839C130.182 338.5 128.398 352.294 130.182 365.857C130.193 365.962 130.182 366.067 130.161 366.161C130.13 366.266 130.088 366.35 130.025 366.434C129.962 366.518 129.878 366.581 129.794 366.633C129.7 366.686 129.605 366.717 129.5 366.728H129.395L129.385 366.749ZM130.518 212.306C130.445 212.306 130.371 212.296 130.308 212.275C119.895 209.377 108.095 206.081 92.7265 196.339C79.0689 187.679 68.7077 175.585 61.9471 160.395C61.9051 160.301 61.8842 160.196 61.8842 160.091C61.8842 159.986 61.8947 159.881 61.9366 159.786C61.9786 159.692 62.0311 159.597 62.1046 159.524C62.1781 159.45 62.2621 159.387 62.3566 159.345C62.451 159.303 62.556 159.282 62.661 159.282C62.766 159.282 62.8709 159.293 62.9654 159.335C63.0599 159.377 63.1544 159.429 63.2279 159.503C63.3013 159.576 63.3643 159.66 63.4063 159.755C70.0514 174.651 80.2132 186.513 93.5978 195.006C108.767 204.632 120.43 207.887 130.749 210.763C130.938 210.816 131.096 210.931 131.201 211.089C131.306 211.246 131.348 211.445 131.327 211.634C131.306 211.823 131.211 212.002 131.064 212.128C130.917 212.254 130.739 212.317 130.539 212.317L130.518 212.306Z" fill="#6A6AF4"/>
<path d="M30.4539 135.631L218.311 75.6465L221.723 86.3227L33.8657 146.307L30.4539 135.631Z" fill="#3A3A3A"/>
<path d="M114.929 400.132L302.786 340.147L306.198 350.824L118.341 410.808L114.929 400.132Z" fill="#3A3A3A"/>
<path d="M212.264 215.445C212.065 215.445 211.865 215.361 211.718 215.224C211.571 215.077 211.487 214.878 211.477 214.668C211.477 214.458 211.55 214.258 211.697 214.111L226.867 198.207C227.013 198.05 227.213 197.966 227.423 197.966C227.633 197.966 227.832 198.039 227.99 198.186C228.147 198.333 228.231 198.533 228.231 198.743C228.231 198.953 228.158 199.152 228.011 199.31L212.842 215.214C212.768 215.287 212.674 215.35 212.579 215.392C212.474 215.434 212.369 215.455 212.264 215.455V215.445ZM220.389 228.808C220.2 228.808 220.011 228.745 219.875 228.619C219.728 228.493 219.634 228.325 219.613 228.136C219.592 227.947 219.634 227.758 219.728 227.601C219.833 227.443 219.99 227.328 220.169 227.275L241.259 221.082C241.458 221.019 241.679 221.04 241.857 221.145C242.046 221.25 242.183 221.418 242.235 221.617C242.298 221.817 242.267 222.037 242.172 222.216C242.067 222.394 241.899 222.531 241.7 222.593L220.61 228.798C220.536 228.819 220.463 228.819 220.389 228.819V228.808ZM242.12 249.625C242.057 249.625 241.994 249.625 241.931 249.604L218.185 243.841C218.08 243.809 217.985 243.767 217.912 243.704C217.828 243.641 217.754 243.568 217.702 243.473C217.649 243.379 217.618 243.285 217.597 243.18C217.587 243.075 217.597 242.97 217.618 242.875C217.639 242.77 217.691 242.676 217.754 242.592C217.817 242.508 217.901 242.434 217.985 242.382C218.08 242.329 218.174 242.298 218.279 242.277C218.384 242.266 218.489 242.277 218.584 242.298L242.309 248.061C242.498 248.103 242.655 248.218 242.771 248.376C242.876 248.533 242.928 248.722 242.907 248.922C242.886 249.111 242.792 249.289 242.645 249.415C242.498 249.541 242.319 249.615 242.13 249.615L242.12 249.625ZM115.968 246.192C115.968 246.192 115.863 246.192 115.821 246.192L94.2696 242.004C94.1647 241.983 94.0702 241.941 93.9862 241.888C93.9022 241.836 93.8287 241.762 93.7657 241.668C93.7028 241.584 93.6713 241.489 93.6503 241.384C93.6293 241.279 93.6293 241.174 93.6503 241.08C93.6713 240.975 93.7133 240.881 93.7657 240.797C93.8182 240.713 93.8917 240.639 93.9862 240.576C94.0702 240.513 94.1647 240.482 94.2696 240.461C94.3746 240.44 94.4796 240.44 94.5741 240.461L116.157 244.628C116.367 244.649 116.556 244.754 116.693 244.912C116.829 245.069 116.892 245.279 116.871 245.489C116.85 245.699 116.745 245.888 116.588 246.024C116.43 246.161 116.22 246.224 116.01 246.203H115.989L115.968 246.192ZM96.3167 268.972C96.1277 268.972 95.9493 268.91 95.8023 268.784C95.6553 268.668 95.5609 268.5 95.5294 268.311C95.4979 268.133 95.5294 267.933 95.6238 267.776C95.7183 267.618 95.8653 267.492 96.0438 267.429L116.819 260.249C116.913 260.207 117.018 260.196 117.134 260.196C117.239 260.196 117.344 260.228 117.438 260.27C117.533 260.312 117.617 260.375 117.69 260.459C117.764 260.532 117.816 260.627 117.848 260.732C117.879 260.837 117.9 260.942 117.89 261.047C117.89 261.152 117.858 261.257 117.806 261.351C117.753 261.446 117.69 261.53 117.606 261.603C117.522 261.677 117.428 261.719 117.333 261.75L96.5581 268.93C96.4742 268.962 96.3902 268.972 96.3062 268.972H96.3167ZM111.454 291.354C111.307 291.354 111.15 291.312 111.024 291.228C110.898 291.144 110.793 291.028 110.73 290.892C110.667 290.755 110.646 290.598 110.667 290.451C110.688 290.304 110.751 290.157 110.856 290.052L126.855 271.607C126.918 271.513 127.002 271.439 127.096 271.387C127.191 271.334 127.296 271.293 127.4 271.282C127.505 271.272 127.621 271.282 127.726 271.313C127.831 271.345 127.925 271.397 128.009 271.471C128.093 271.544 128.156 271.628 128.209 271.733C128.251 271.838 128.282 271.943 128.282 272.048C128.282 272.164 128.261 272.269 128.219 272.374C128.177 272.479 128.114 272.563 128.03 272.647L112.032 291.091C111.958 291.175 111.864 291.249 111.769 291.291C111.664 291.333 111.559 291.364 111.444 291.364L111.454 291.354Z" fill="#E4794A"/>
<path d="M324.012 405.685C364.009 405.685 396.426 373.268 396.426 333.272C396.426 293.275 364.009 260.858 324.012 260.858C284.016 260.858 251.599 293.275 251.599 333.272C251.599 373.268 284.016 405.685 324.012 405.685Z" fill="white"/>
<path d="M317.011 261.982C316.801 261.982 316.601 261.898 316.454 261.751C316.307 261.604 316.223 261.404 316.223 261.194V245.29C316.223 245.08 316.307 244.881 316.454 244.734C316.601 244.587 316.801 244.503 317.011 244.503H329.471C329.681 244.503 329.881 244.587 330.028 244.734C330.175 244.881 330.259 245.08 330.259 245.29V261.079C330.259 261.289 330.175 261.488 330.028 261.635C329.881 261.782 329.681 261.866 329.471 261.866C329.261 261.866 329.062 261.782 328.915 261.635C328.768 261.488 328.684 261.289 328.684 261.079V246.078H317.798V261.194C317.798 261.404 317.714 261.604 317.567 261.751C317.42 261.898 317.221 261.982 317.011 261.982Z" fill="#3A3A3A"/>
<path d="M324.013 406.472C314.166 406.504 304.403 404.541 295.343 400.677C286.273 396.825 278.095 391.156 271.282 384.039C271.135 383.892 271.051 383.692 271.051 383.482C271.051 383.272 271.135 383.073 271.282 382.926C271.356 382.852 271.44 382.8 271.534 382.758C271.629 382.716 271.734 382.695 271.839 382.695C271.944 382.695 272.049 382.716 272.143 382.758C272.238 382.8 272.332 382.852 272.395 382.926C279.061 389.896 287.061 395.429 295.931 399.208C304.802 402.976 314.344 404.908 323.981 404.877C363.474 404.877 395.607 372.743 395.607 333.251C395.607 293.758 363.474 261.624 323.981 261.624C284.489 261.624 252.355 293.758 252.355 333.251C252.334 346.919 256.25 360.303 263.619 371.819C263.735 371.998 263.766 372.208 263.724 372.418C263.682 372.628 263.556 372.806 263.378 372.911C263.199 373.026 262.989 373.058 262.779 373.016C262.58 372.974 262.391 372.848 262.286 372.67C254.759 360.902 250.759 347.223 250.78 333.251C250.78 292.887 283.617 260.05 323.981 260.05C364.345 260.05 397.182 292.887 397.182 333.251C397.182 373.614 364.355 406.472 324.002 406.472H324.013Z" fill="#3A3A3A"/>
<path d="M324.013 396.342C358.844 396.342 387.083 368.103 387.083 333.272C387.083 298.44 358.844 270.201 324.013 270.201C289.181 270.201 260.942 298.44 260.942 333.272C260.942 368.103 289.181 396.342 324.013 396.342Z" fill="#6A6AF4"/>
<path d="M329.471 252.533C329.293 252.533 329.115 252.471 328.968 252.355C328.821 252.24 328.726 252.082 328.684 251.904C328.642 251.725 328.674 251.536 328.758 251.379C328.842 251.221 328.978 251.085 329.146 251.011C332.18 249.657 334.668 247.306 336.179 244.335C337.691 241.374 338.132 237.973 337.439 234.719C336.746 231.465 334.962 228.546 332.369 226.447C329.786 224.358 326.553 223.213 323.225 223.213C319.898 223.213 316.675 224.358 314.082 226.447C311.499 228.546 309.704 231.465 309.011 234.719C308.318 237.973 308.77 241.364 310.271 244.335C311.783 247.295 314.26 249.657 317.305 251.011C317.399 251.053 317.483 251.116 317.557 251.19C317.63 251.263 317.682 251.358 317.724 251.452C317.766 251.547 317.777 251.652 317.777 251.757C317.777 251.862 317.756 251.967 317.704 252.061C317.662 252.156 317.599 252.24 317.525 252.313C317.452 252.387 317.357 252.439 317.263 252.481C317.168 252.523 317.063 252.533 316.958 252.533C316.853 252.533 316.748 252.502 316.654 252.46C313.284 250.959 310.534 248.345 308.854 245.059C307.174 241.773 306.681 238.005 307.447 234.393C308.214 230.782 310.198 227.549 313.063 225.229C315.929 222.909 319.509 221.639 323.194 221.639C326.878 221.639 330.458 222.909 333.324 225.229C336.19 227.549 338.174 230.782 338.94 234.393C339.707 238.005 339.213 241.763 337.534 245.059C335.854 248.345 333.104 250.959 329.734 252.46C329.629 252.502 329.524 252.533 329.419 252.523L329.471 252.533Z" fill="#3A3A3A"/>
<path d="M324.013 284.227C323.803 284.227 323.603 284.143 323.456 283.996C323.309 283.849 323.225 283.649 323.225 283.439V278.768C323.225 278.558 323.309 278.358 323.456 278.211C323.603 278.064 323.803 277.98 324.013 277.98C324.222 277.98 324.422 278.064 324.569 278.211C324.716 278.358 324.8 278.558 324.8 278.768V283.439C324.8 283.649 324.716 283.849 324.569 283.996C324.422 284.143 324.222 284.227 324.013 284.227ZM324.013 388.564C323.803 388.564 323.603 388.48 323.456 388.333C323.309 388.186 323.225 387.986 323.225 387.776V383.084C323.225 382.874 323.309 382.674 323.456 382.527C323.603 382.38 323.803 382.296 324.013 382.296C324.222 382.296 324.422 382.38 324.569 382.527C324.716 382.674 324.8 382.874 324.8 383.084V387.755C324.8 387.86 324.779 387.965 324.747 388.06C324.705 388.154 324.653 388.249 324.579 388.322C324.506 388.396 324.422 388.459 324.317 388.501C324.222 388.543 324.117 388.564 324.013 388.564ZM378.517 334.059H373.845C373.635 334.059 373.436 333.975 373.289 333.828C373.142 333.681 373.058 333.482 373.058 333.272C373.058 333.062 373.142 332.863 373.289 332.716C373.436 332.569 373.635 332.485 373.845 332.485H378.517C378.727 332.485 378.926 332.569 379.073 332.716C379.22 332.863 379.304 333.062 379.304 333.272C379.304 333.482 379.22 333.681 379.073 333.828C378.926 333.975 378.727 334.059 378.517 334.059ZM274.18 334.059H269.508C269.298 334.059 269.099 333.975 268.952 333.828C268.805 333.681 268.721 333.482 268.721 333.272C268.721 333.062 268.805 332.863 268.952 332.716C269.099 332.569 269.298 332.485 269.508 332.485H274.18C274.39 332.485 274.589 332.569 274.736 332.716C274.883 332.863 274.967 333.062 274.967 333.272C274.967 333.482 274.883 333.681 274.736 333.828C274.589 333.975 274.39 334.059 274.18 334.059ZM299.08 290.903C298.944 290.903 298.807 290.872 298.681 290.798C298.566 290.725 298.461 290.63 298.388 290.515L296.057 286.463C296.005 286.368 295.963 286.274 295.942 286.169C295.921 286.064 295.931 285.959 295.952 285.854C295.973 285.749 296.026 285.654 296.089 285.57C296.152 285.486 296.236 285.413 296.33 285.36C296.424 285.308 296.519 285.276 296.634 285.255C296.739 285.245 296.844 285.255 296.949 285.276C297.054 285.308 297.149 285.36 297.233 285.423C297.317 285.486 297.38 285.57 297.432 285.665L299.763 289.717C299.868 289.895 299.899 290.116 299.847 290.315C299.794 290.515 299.658 290.693 299.479 290.798C299.364 290.872 299.227 290.903 299.08 290.903ZM351.265 381.268C351.128 381.268 350.992 381.236 350.866 381.163C350.75 381.089 350.645 380.995 350.572 380.869L348.231 376.827C348.126 376.649 348.094 376.428 348.147 376.229C348.199 376.029 348.336 375.851 348.514 375.746C348.693 375.641 348.913 375.609 349.113 375.672C349.312 375.725 349.491 375.861 349.595 376.04L351.947 380.081C352.052 380.26 352.083 380.48 352.031 380.68C351.978 380.879 351.842 381.058 351.664 381.163C351.538 381.236 351.401 381.268 351.254 381.268H351.265ZM367.169 309.148C366.99 309.148 366.822 309.096 366.686 308.98C366.549 308.865 366.444 308.728 366.402 308.56C366.36 308.392 366.371 308.214 366.434 308.057C366.497 307.899 366.612 307.763 366.77 307.679L370.811 305.359C370.99 305.264 371.2 305.243 371.399 305.296C371.599 305.348 371.756 305.485 371.861 305.663C371.966 305.841 371.987 306.051 371.945 306.251C371.893 306.45 371.777 306.618 371.599 306.734L367.557 309.075C367.431 309.138 367.305 309.169 367.158 309.169L367.169 309.148ZM276.804 361.311C276.668 361.311 276.531 361.269 276.405 361.206C276.279 361.144 276.185 361.039 276.122 360.923C276.069 360.829 276.038 360.734 276.017 360.629C276.006 360.524 276.017 360.419 276.038 360.325C276.069 360.22 276.111 360.136 276.174 360.052C276.237 359.968 276.321 359.905 276.405 359.852L280.447 357.522C280.541 357.469 280.636 357.427 280.741 357.406C280.846 357.385 280.951 357.396 281.056 357.417C281.161 357.438 281.255 357.49 281.339 357.553C281.423 357.616 281.497 357.7 281.549 357.795C281.602 357.889 281.633 357.984 281.654 358.099C281.665 358.204 281.654 358.309 281.623 358.414C281.591 358.519 281.549 358.614 281.476 358.698C281.413 358.782 281.329 358.845 281.234 358.897L277.193 361.238C277.077 361.311 276.941 361.343 276.794 361.343L276.804 361.311ZM348.924 290.903C348.787 290.903 348.651 290.861 348.525 290.798C348.441 290.746 348.357 290.672 348.294 290.599C348.231 290.515 348.189 290.42 348.157 290.326C348.126 290.221 348.126 290.126 348.136 290.021C348.147 289.916 348.178 289.822 348.231 289.727L350.572 285.675C350.677 285.497 350.845 285.36 351.055 285.308C351.254 285.255 351.475 285.287 351.653 285.381C351.832 285.486 351.968 285.654 352.02 285.864C352.073 286.074 352.041 286.284 351.947 286.463L349.606 290.515C349.533 290.63 349.438 290.735 349.323 290.798C349.207 290.872 349.071 290.903 348.924 290.903ZM296.76 381.268C296.624 381.268 296.487 381.236 296.361 381.163C296.183 381.058 296.047 380.89 295.994 380.68C295.942 380.48 295.973 380.26 296.068 380.081L298.398 376.04C298.503 375.861 298.671 375.725 298.881 375.672C299.08 375.62 299.301 375.651 299.479 375.746C299.658 375.851 299.794 376.019 299.847 376.229C299.899 376.428 299.878 376.649 299.773 376.827L297.432 380.869C297.359 380.984 297.264 381.089 297.138 381.152C297.023 381.226 296.886 381.257 296.739 381.257L296.76 381.268ZM280.856 309.148C280.72 309.148 280.583 309.106 280.457 309.043L276.416 306.702C276.248 306.597 276.122 306.419 276.069 306.219C276.017 306.02 276.048 305.81 276.153 305.632C276.258 305.453 276.426 305.327 276.615 305.264C276.815 305.212 277.025 305.233 277.203 305.327L281.245 307.668C281.392 307.752 281.507 307.889 281.581 308.046C281.644 308.203 281.654 308.382 281.612 308.55C281.57 308.718 281.465 308.865 281.329 308.97C281.192 309.075 281.024 309.127 280.846 309.138L280.856 309.148ZM371.221 361.311C371.084 361.311 370.948 361.269 370.822 361.206L366.78 358.866C366.686 358.813 366.602 358.75 366.539 358.666C366.476 358.582 366.423 358.488 366.392 358.383C366.36 358.278 366.35 358.173 366.371 358.068C366.381 357.963 366.413 357.858 366.476 357.763C366.528 357.669 366.602 357.585 366.686 357.522C366.77 357.459 366.864 357.417 366.969 357.385C367.074 357.364 367.179 357.354 367.284 357.375C367.389 357.396 367.494 357.427 367.578 357.49L371.62 359.821C371.767 359.905 371.893 360.041 371.956 360.199C372.019 360.356 372.04 360.535 371.987 360.703C371.945 360.871 371.84 361.018 371.704 361.123C371.567 361.228 371.399 361.28 371.221 361.28V361.311Z" fill="white"/>
<path d="M321.42 289.412H326.606V343.916H321.42V289.412Z" fill="white"/>
<path d="M324.013 339.245C327.309 339.245 329.986 336.568 329.986 333.272C329.986 329.976 327.309 327.299 324.013 327.299C320.716 327.299 318.039 329.976 318.039 333.272C318.039 336.568 320.716 339.245 324.013 339.245Z" fill="white"/>
<path d="M288.971 183.217H203.425C201.997 183.217 200.591 182.839 199.352 182.125C198.113 181.411 197.084 180.382 196.371 179.144C195.657 177.905 195.279 176.498 195.279 175.071C195.279 173.643 195.657 172.236 196.371 170.997L239.138 96.9149C239.852 95.6762 240.881 94.6474 242.12 93.9336C243.358 93.2197 244.765 92.8418 246.203 92.8418C247.641 92.8418 249.038 93.2197 250.276 93.9336C251.515 94.6474 252.544 95.6762 253.258 96.9149L296.036 170.997C296.75 172.236 297.128 173.643 297.128 175.081C297.128 176.509 296.75 177.926 296.036 179.165C295.322 180.403 294.293 181.432 293.044 182.146C291.805 182.86 290.399 183.238 288.961 183.238L288.971 183.217Z" fill="#E4794A"/>
<path d="M288.971 178.997H203.425C202.732 178.997 202.06 178.808 201.462 178.462C200.864 178.116 200.37 177.622 200.024 177.024C199.677 176.425 199.499 175.754 199.499 175.061C199.499 174.368 199.677 173.696 200.013 173.098L242.781 99.0151C243.127 98.4167 243.631 97.9233 244.23 97.5874C244.828 97.241 245.5 97.0625 246.193 97.0625C246.886 97.0625 247.558 97.241 248.156 97.5874C248.754 97.9338 249.248 98.4272 249.605 99.0151L292.372 173.098C292.719 173.696 292.897 174.368 292.887 175.061C292.887 175.754 292.708 176.425 292.362 177.024C292.015 177.622 291.522 178.116 290.934 178.462C290.346 178.808 289.664 178.997 288.982 178.997H288.971ZM244.492 99.9914L201.724 174.074C201.546 174.378 201.451 174.714 201.451 175.061C201.451 175.407 201.546 175.754 201.714 176.058C201.892 176.362 202.134 176.614 202.438 176.782C202.743 176.961 203.079 177.045 203.436 177.045H288.982C289.328 177.045 289.674 176.961 289.979 176.782C290.283 176.604 290.535 176.362 290.703 176.058C290.871 175.754 290.966 175.418 290.966 175.061C290.966 174.714 290.871 174.368 290.693 174.074L247.914 99.9914C247.746 99.6869 247.495 99.435 247.19 99.267C246.886 99.0886 246.55 99.0046 246.203 99.0046C245.857 99.0046 245.51 99.0991 245.206 99.267C244.902 99.435 244.66 99.6974 244.482 99.9914H244.492Z" fill="white"/>
<path d="M246.203 157.518C245.458 157.518 244.744 157.224 244.209 156.721C243.673 156.206 243.348 155.503 243.317 154.758L241.668 123.579C241.647 123.191 241.71 122.792 241.847 122.425C241.983 122.057 242.193 121.721 242.466 121.438C242.739 121.154 243.065 120.923 243.422 120.766C243.778 120.608 244.177 120.535 244.566 120.524H247.852C248.25 120.524 248.639 120.608 248.996 120.755C249.353 120.913 249.678 121.133 249.951 121.427C250.224 121.711 250.434 122.047 250.57 122.414C250.707 122.781 250.77 123.18 250.749 123.569L249.101 154.747C249.069 155.492 248.744 156.196 248.208 156.71C247.673 157.224 246.949 157.508 246.203 157.508V157.518Z" fill="white"/>
<path d="M246.203 169.055C248.145 169.055 249.71 167.481 249.71 165.549C249.71 163.618 248.135 162.043 246.203 162.043C244.272 162.043 242.697 163.618 242.697 165.549C242.697 167.481 244.272 169.055 246.203 169.055Z" fill="white"/>
<path d="M358.172 272.396L364.135 266.443L396.436 298.745L390.484 304.708L358.183 272.406L358.172 272.396Z" fill="#E4794A"/>
<path d="M390.474 266.443L396.426 272.395L364.124 304.697L358.162 298.734L390.463 266.433L390.474 266.443Z" fill="#E4794A"/>
</svg>
